<svg xmlns="http://www.w3.org/2000/svg" width="682.667" height="682.667" version="1.0" viewBox="0 0 512 512"><path d="M217.8 3.1c-6.1 3.2-7.8 7.7-7.8 21.1v11.3l-11 2.7c-19.5 4.9-39.9 13.4-58.6 24.3l-9.6 5.7-8.7-8.5c-9.5-9.4-13.1-10.9-19.9-8.9-5.4 1.6-51.7 48.2-52.7 53-1.4 6.8.1 10.1 9.2 19.3l8.5 8.8-5.2 8.5c-10.9 18.1-22.7 47.3-26 64.3l-1.3 6.3H23.3c-13.7 0-18.1 1.6-21.3 8-1.9 3.7-2 5.8-2 37s.1 33.3 2 37c3.2 6.4 7.6 8 21.3 8h11.4l1.3 6.2c3.3 17.1 15.1 46.3 26 64.4l5.2 8.5-8.5 8.8c-6.7 6.8-8.7 9.5-9.2 12.5-1.5 7.7-.2 9.5 25.7 35.3 20.6 20.5 24.9 24.2 28 24.8 6.7 1.3 9.7-.2 18.9-9.2l8.6-8.4 12.2 7c18.8 10.7 40 19.2 59.4 23.7l7.7 1.8v11.3c0 13.7 1.6 18.1 8 21.3 3.7 1.9 5.8 2 37 2s33.3-.1 37-2c2.6-1.3 4.7-3.4 6-6 1.9-3.8 2-5.8 2-61.9v-58l-5.2 1.8c-2.9 1-9.3 2.7-14.3 3.7-12.2 2.6-38.3 2.6-50.5.1-28.2-5.9-50.3-17.8-70.5-38.1-19.8-19.9-31.3-41.5-37.2-69.6-2.4-11.8-2.4-38.2 0-50 5.9-28.1 17.4-49.6 37.2-69.6 20-20.2 42.2-32.2 70.5-38.1 12.2-2.5 38.3-2.5 50.5.1 5 1 11.4 2.7 14.3 3.7l5.2 1.8v-58c0-56.1-.1-58.1-2-61.9-1.3-2.6-3.4-4.7-6-6-3.7-1.9-5.8-2-37.2-2-31.2.1-33.5.2-37 2.1zM392.7 7c-10.1 2.6-20 10-24.9 18.7l-3 5.3H330v30h34.8l3 5.3c3.9 6.8 9.8 12.2 18.1 16.1 6 2.8 7.5 3.1 16.1 3.1 8.6 0 10.1-.3 16.2-3.2 9.3-4.4 15.1-10 19.6-19.1 3.5-7.2 3.7-8.1 3.7-17.2s-.2-10-3.7-17.2C431 15.2 419 7.1 404.2 6.4c-4.2-.2-9.4.1-11.5.6zm69.9 85c-6.3 1.6-15.3 7-19.7 11.7-2.2 2.4-5.5 7.4-7.2 11.1-2.6 5.6-3.1 7.8-3.1 14.7-.1 4.4.2 9.5.6 11.2.7 3.3.6 3.4-15.4 16.8L401.6 171H330v30h39.9c22 0 41-.4 42.3-.9 1.3-.5 11.1-8.2 21.8-17.1 15.5-12.9 19.8-16 21.4-15.5 9.8 3.1 12.6 3.6 19.4 3.1 14.4-.9 26.4-9.1 33-22.4 3.5-7.2 3.7-8.1 3.7-17.2s-.2-10-3.7-17.2c-6.8-13.6-18.8-21.7-33.6-22.4-4.2-.2-9.4.1-11.6.6z"/><path d="M239.5 152.1c-20.9 3-42.9 14.2-58.6 29.8-13.5 13.6-23 30.3-28 49.7-3.2 12.2-3.3 36.9-.1 48.4 12.7 46.7 50 78 96.2 80.7 13.8.8 25.9-.9 39.5-5.5l11-3.7v-191l-11-3.7c-16.4-5.5-32.6-7-49-4.7zM462.7 217c-10.1 2.6-20 10-24.9 18.7l-3 5.3H330v30h104.8l3 5.3c3.9 6.8 9.8 12.2 18.1 16.1 6 2.8 7.5 3.1 16.1 3.1 8.6 0 10.1-.3 16.2-3.2 9.3-4.4 15.1-10 19.6-19.1 3.5-7.2 3.7-8.1 3.7-17.2s-.2-10-3.7-17.2c-6.8-13.6-18.8-21.7-33.6-22.4-4.2-.2-9.4.1-11.5.6zM330 326v15h71.6l16.2 13.5c16 13.4 16.1 13.5 15.4 16.8-.4 1.7-.7 6.9-.6 11.4 0 7.3.4 8.9 3.7 15.6 4.4 9 10.3 14.7 19.5 19 6.1 2.9 7.6 3.2 16.2 3.2s10.1-.3 16.2-3.2c9.3-4.4 15.1-10 19.6-19.1 3.5-7.2 3.7-8.1 3.7-17.2s-.2-10-3.7-17.2c-6.6-13.3-18.6-21.5-33-22.4-6.8-.5-9.6 0-19.4 3.1-1.6.5-5.9-2.6-21.4-15.5-10.7-8.9-20.5-16.6-21.8-17.1-1.3-.5-20.3-.9-42.3-.9H330v15zm62.7 101c-10.1 2.6-20 10-24.9 18.7l-3 5.3H330v30h34.8l3 5.3c3.9 6.8 9.8 12.2 18.1 16.1 6 2.8 7.5 3.1 16.1 3.1 8.6 0 10.1-.3 16.2-3.2 9.3-4.4 15.1-10 19.6-19.1 3.5-7.2 3.7-8.1 3.7-17.2s-.2-10-3.7-17.2c-6.8-13.6-18.8-21.7-33.6-22.4-4.2-.2-9.4.1-11.5.6z"/></svg>